<svg xmlns="http://www.w3.org/2000/svg" xmlns:xlink="http://www.w3.org/1999/xlink" width="1024" zoomAndPan="magnify" viewBox="0 0 768 767.999994" height="1024" preserveAspectRatio="xMidYMid meet" version="1.0"><defs><clipPath id="8ed250b762"><path d="M 22 10 L 745.851562 10 L 745.851562 758 L 22 758 Z M 22 10 " clip-rule="nonzero"/></clipPath><clipPath id="3b5efb1572"><path d="M 58.148438 10.714844 L 709.851562 10.714844 C 719.398438 10.714844 728.554688 14.507812 735.304688 21.257812 C 742.058594 28.011719 745.851562 37.167969 745.851562 46.714844 L 745.851562 721.285156 C 745.851562 730.832031 742.058594 739.988281 735.304688 746.742188 C 728.554688 753.492188 719.398438 757.285156 709.851562 757.285156 L 58.148438 757.285156 C 48.601562 757.285156 39.445312 753.492188 32.695312 746.742188 C 25.941406 739.988281 22.148438 730.832031 22.148438 721.285156 L 22.148438 46.714844 C 22.148438 37.167969 25.941406 28.011719 32.695312 21.257812 C 39.445312 14.507812 48.601562 10.714844 58.148438 10.714844 Z M 58.148438 10.714844 " clip-rule="nonzero"/></clipPath><clipPath id="56f9f6bf33"><path d="M 0.078125 0.558594 L 723.851562 0.558594 L 723.851562 747.441406 L 0.078125 747.441406 Z M 0.078125 0.558594 " clip-rule="nonzero"/></clipPath><clipPath id="361b52ecaf"><path d="M 36.148438 0.714844 L 687.851562 0.714844 C 697.398438 0.714844 706.554688 4.507812 713.304688 11.257812 C 720.058594 18.011719 723.851562 27.167969 723.851562 36.714844 L 723.851562 711.285156 C 723.851562 720.832031 720.058594 729.988281 713.304688 736.742188 C 706.554688 743.492188 697.398438 747.285156 687.851562 747.285156 L 36.148438 747.285156 C 26.601562 747.285156 17.445312 743.492188 10.695312 736.742188 C 3.941406 729.988281 0.148438 720.832031 0.148438 711.285156 L 0.148438 36.714844 C 0.148438 27.167969 3.941406 18.011719 10.695312 11.257812 C 17.445312 4.507812 26.601562 0.714844 36.148438 0.714844 Z M 36.148438 0.714844 " clip-rule="nonzero"/></clipPath><clipPath id="ef135f9077"><rect x="0" width="724" y="0" height="748"/></clipPath><clipPath id="39d67ebbb3"><path d="M 88.113281 103.289062 L 361.679688 103.289062 L 361.679688 757.28125 L 88.113281 757.28125 Z M 88.113281 103.289062 " clip-rule="nonzero"/></clipPath><clipPath id="efd9959f77"><path d="M 270.441406 111.84375 C 256.417969 107.074219 240.472656 103.945312 224.824219 103.945312 C 209.171875 103.945312 194.113281 106.628906 180.238281 111.398438 C 179.941406 111.546875 179.648438 111.546875 179.351562 111.695312 C 127.238281 130.773438 88.851562 181.152344 88.113281 247.058594 L 88.113281 757.28125 L 361.679688 757.28125 L 361.679688 247.4375 C 360.941406 180.851562 323.148438 130.476562 270.441406 111.84375 Z M 270.441406 111.84375 " clip-rule="nonzero"/></clipPath><clipPath id="ae3eea93c3"><path d="M 0.113281 1 L 273.679688 1 L 273.679688 654.28125 L 0.113281 654.28125 Z M 0.113281 1 " clip-rule="nonzero"/></clipPath><clipPath id="744f2e3a56"><path d="M 182.441406 8.84375 C 168.417969 4.074219 152.472656 0.945312 136.824219 0.945312 C 121.171875 0.945312 106.113281 3.628906 92.238281 8.398438 C 91.941406 8.546875 91.648438 8.546875 91.351562 8.695312 C 39.238281 27.773438 0.851562 78.152344 0.113281 144.058594 L 0.113281 654.28125 L 273.679688 654.28125 L 273.679688 144.4375 C 272.941406 77.851562 235.148438 27.476562 182.441406 8.84375 Z M 182.441406 8.84375 " clip-rule="nonzero"/></clipPath><clipPath id="f2b719521a"><rect x="0" width="274" y="0" height="655"/></clipPath><clipPath id="1e024724ef"><path d="M 117.992188 135.0625 L 331.800781 135.0625 L 331.800781 757.28125 L 117.992188 757.28125 Z M 117.992188 135.0625 " clip-rule="nonzero"/></clipPath><clipPath id="754e9c7610"><path d="M 260.496094 142.664062 C 249.53125 138.203125 237.070312 135.273438 224.839844 135.273438 C 212.609375 135.273438 200.839844 137.785156 189.992188 142.246094 C 189.761719 142.386719 189.53125 142.386719 189.300781 142.527344 C 148.570312 160.378906 118.570312 207.527344 117.992188 269.445312 L 117.992188 757.28125 L 331.800781 757.28125 L 331.800781 269.808594 C 331.226562 207.25 301.6875 160.101562 260.496094 142.664062 Z M 260.496094 142.664062 " clip-rule="nonzero"/></clipPath><clipPath id="80f1d55c62"><path d="M 0.992188 0.121094 L 214.800781 0.121094 L 214.800781 622.28125 L 0.992188 622.28125 Z M 0.992188 0.121094 " clip-rule="nonzero"/></clipPath><clipPath id="639206d4fe"><path d="M 143.496094 7.664062 C 132.53125 3.203125 120.070312 0.273438 107.839844 0.273438 C 95.609375 0.273438 83.839844 2.785156 72.992188 7.246094 C 72.761719 7.386719 72.53125 7.386719 72.300781 7.527344 C 31.570312 25.378906 1.570312 72.527344 0.992188 134.445312 L 0.992188 622.28125 L 214.800781 622.28125 L 214.800781 134.808594 C 214.226562 72.25 184.6875 25.101562 143.496094 7.664062 Z M 143.496094 7.664062 " clip-rule="nonzero"/></clipPath><clipPath id="30a999bafd"><rect x="0" width="215" y="0" height="623"/></clipPath><clipPath id="cda91220a2"><path d="M 121.785156 264.273438 L 328.011719 264.273438 L 328.011719 757.28125 L 121.785156 757.28125 Z M 121.785156 264.273438 " clip-rule="nonzero"/></clipPath><clipPath id="e33b7fce82"><path d="M 259.234375 270.71875 C 248.660156 267.125 236.640625 264.765625 224.84375 264.765625 C 213.046875 264.765625 201.695312 266.789062 191.234375 270.382812 C 191.007812 270.496094 190.789062 270.496094 190.566406 270.609375 C 151.277344 284.988281 122.339844 322.96875 121.785156 372.652344 L 121.785156 757.28125 L 328.011719 757.28125 L 328.011719 372.9375 C 327.457031 322.742188 298.964844 284.765625 259.234375 270.71875 Z M 259.234375 270.71875 " clip-rule="nonzero"/></clipPath><clipPath id="8d3a88ea96"><path d="M 0.785156 1 L 207.011719 1 L 207.011719 493.28125 L 0.785156 493.28125 Z M 0.785156 1 " clip-rule="nonzero"/></clipPath><clipPath id="3128dbd657"><path d="M 138.234375 6.71875 C 127.660156 3.125 115.640625 0.765625 103.84375 0.765625 C 92.046875 0.765625 80.695312 2.789062 70.234375 6.382812 C 70.007812 6.496094 69.789062 6.496094 69.566406 6.609375 C 30.277344 20.988281 1.339844 58.96875 0.785156 108.652344 L 0.785156 493.28125 L 207.011719 493.28125 L 207.011719 108.9375 C 206.457031 58.742188 177.964844 20.765625 138.234375 6.71875 Z M 138.234375 6.71875 " clip-rule="nonzero"/></clipPath><clipPath id="a2f8838b12"><rect x="0" width="208" y="0" height="494"/></clipPath><clipPath id="15e79589a0"><path d="M 144.308594 288.222656 L 305.488281 288.222656 L 305.488281 757.285156 L 144.308594 757.285156 Z M 144.308594 288.222656 " clip-rule="nonzero"/></clipPath><clipPath id="5745b9f6c6"><path d="M 251.734375 293.953125 C 243.46875 290.589844 234.074219 288.382812 224.855469 288.382812 C 215.632812 288.382812 206.761719 290.273438 198.585938 293.640625 C 198.410156 293.746094 198.238281 293.746094 198.0625 293.851562 C 167.359375 307.308594 144.742188 342.851562 144.308594 389.527344 L 144.308594 757.285156 L 305.488281 757.285156 L 305.488281 389.800781 C 305.054688 342.640625 282.785156 307.097656 251.734375 293.953125 Z M 251.734375 293.953125 " clip-rule="nonzero"/></clipPath><clipPath id="479020bf2c"><path d="M 0.308594 0.238281 L 161.488281 0.238281 L 161.488281 469.285156 L 0.308594 469.285156 Z M 0.308594 0.238281 " clip-rule="nonzero"/></clipPath><clipPath id="a1dd0e8bee"><path d="M 107.734375 5.953125 C 99.46875 2.589844 90.074219 0.382812 80.855469 0.382812 C 71.632812 0.382812 62.761719 2.273438 54.585938 5.640625 C 54.410156 5.746094 54.238281 5.746094 54.0625 5.851562 C 23.359375 19.308594 0.742188 54.851562 0.308594 101.527344 L 0.308594 469.285156 L 161.488281 469.285156 L 161.488281 101.800781 C 161.054688 54.640625 138.785156 19.097656 107.734375 5.953125 Z M 107.734375 5.953125 " clip-rule="nonzero"/></clipPath><clipPath id="4f516f9ebc"><rect x="0" width="162" y="0" height="470"/></clipPath><clipPath id="e14115c845"><path d="M 373.09375 156.164062 L 720 156.164062 L 720 373.355469 L 373.09375 373.355469 Z M 373.09375 156.164062 " clip-rule="nonzero"/></clipPath><clipPath id="d86f78c5c4"><path d="M 713.195312 300.917969 C 716.980469 289.78125 719.464844 277.125 719.464844 264.699219 C 719.464844 252.273438 717.335938 240.320312 713.546875 229.300781 C 713.429688 229.066406 713.429688 228.832031 713.3125 228.597656 C 698.164062 187.222656 658.167969 156.75 609.671875 156.164062 L 373.09375 156.164062 L 373.09375 373.355469 L 609.496094 373.355469 C 658.40625 372.765625 698.402344 342.761719 713.195312 300.917969 Z M 713.195312 300.917969 " clip-rule="nonzero"/></clipPath><clipPath id="53cb2d65f5"><path d="M 0.09375 0.164062 L 346.519531 0.164062 L 346.519531 217.355469 L 0.09375 217.355469 Z M 0.09375 0.164062 " clip-rule="nonzero"/></clipPath><clipPath id="f7e35c839e"><path d="M 340.195312 144.917969 C 343.980469 133.78125 346.464844 121.125 346.464844 108.699219 C 346.464844 96.273438 344.335938 84.320312 340.546875 73.300781 C 340.429688 73.066406 340.429688 72.832031 340.3125 72.597656 C 325.164062 31.222656 285.167969 0.75 236.671875 0.164062 L 0.09375 0.164062 L 0.09375 217.355469 L 236.496094 217.355469 C 285.40625 216.765625 325.402344 186.761719 340.195312 144.917969 Z M 340.195312 144.917969 " clip-rule="nonzero"/></clipPath><clipPath id="7893e59bd1"><rect x="0" width="347" y="0" height="218"/></clipPath><clipPath id="723619b846"><path d="M 373.09375 179.886719 L 703 179.886719 L 703 349.636719 L 373.09375 349.636719 Z M 373.09375 179.886719 " clip-rule="nonzero"/></clipPath><clipPath id="a0a0ad3d06"><path d="M 696.988281 293.023438 C 700.53125 284.320312 702.859375 274.425781 702.859375 264.714844 C 702.859375 255.003906 700.863281 245.660156 697.320312 237.050781 C 697.210938 236.867188 697.210938 236.683594 697.097656 236.5 C 682.921875 204.160156 645.492188 180.34375 599.976562 179.886719 L 373.09375 179.886719 L 373.09375 349.636719 L 599.808594 349.636719 C 645.710938 349.179688 683.144531 325.726562 696.988281 293.023438 Z M 696.988281 293.023438 " clip-rule="nonzero"/></clipPath><clipPath id="97ee7f3c3b"><path d="M 0.09375 0.886719 L 329.960938 0.886719 L 329.960938 170.636719 L 0.09375 170.636719 Z M 0.09375 0.886719 " clip-rule="nonzero"/></clipPath><clipPath id="8633e98ee1"><path d="M 323.988281 114.023438 C 327.53125 105.320312 329.859375 95.425781 329.859375 85.714844 C 329.859375 76.003906 327.863281 66.660156 324.320312 58.050781 C 324.210938 57.867188 324.210938 57.683594 324.097656 57.5 C 309.921875 25.160156 272.492188 1.34375 226.976562 0.886719 L 0.09375 0.886719 L 0.09375 170.636719 L 226.808594 170.636719 C 272.710938 170.179688 310.144531 146.726562 323.988281 114.023438 Z M 323.988281 114.023438 " clip-rule="nonzero"/></clipPath><clipPath id="42a078e25a"><rect x="0" width="330" y="0" height="171"/></clipPath><clipPath id="53633c7d51"><path d="M 373.09375 182.894531 L 634.675781 182.894531 L 634.675781 346.625 L 373.09375 346.625 Z M 373.09375 182.894531 " clip-rule="nonzero"/></clipPath><clipPath id="256bf45402"><path d="M 629.476562 292.019531 C 632.332031 283.625 634.203125 274.082031 634.203125 264.714844 C 634.203125 255.351562 632.597656 246.335938 629.742188 238.03125 C 629.65625 237.855469 629.65625 237.679688 629.566406 237.5 C 618.148438 206.3125 587.996094 183.335938 551.4375 182.894531 L 373.09375 182.894531 L 373.09375 346.625 L 551.304688 346.625 C 588.175781 346.183594 618.324219 323.5625 629.476562 292.019531 Z M 629.476562 292.019531 " clip-rule="nonzero"/></clipPath><clipPath id="e451beb67b"><path d="M 0.09375 0.894531 L 261.320312 0.894531 L 261.320312 164.625 L 0.09375 164.625 Z M 0.09375 0.894531 " clip-rule="nonzero"/></clipPath><clipPath id="466db83a14"><path d="M 256.476562 110.019531 C 259.332031 101.625 261.203125 92.082031 261.203125 82.714844 C 261.203125 73.351562 259.597656 64.335938 256.742188 56.03125 C 256.65625 55.855469 256.65625 55.679688 256.566406 55.5 C 245.148438 24.3125 214.996094 1.335938 178.4375 0.894531 L 0.09375 0.894531 L 0.09375 164.625 L 178.304688 164.625 C 215.175781 164.183594 245.324219 141.5625 256.476562 110.019531 Z M 256.476562 110.019531 " clip-rule="nonzero"/></clipPath><clipPath id="c1e870697a"><rect x="0" width="262" y="0" height="165"/></clipPath><clipPath id="ebea4cef63"><path d="M 373.089844 200.777344 L 622 200.777344 L 622 328.746094 L 373.089844 328.746094 Z M 373.089844 200.777344 " clip-rule="nonzero"/></clipPath><clipPath id="9a33b1121d"><path d="M 617.257812 286.066406 C 619.929688 279.503906 621.679688 272.046875 621.679688 264.726562 C 621.679688 257.40625 620.179688 250.363281 617.507812 243.871094 C 617.421875 243.734375 617.421875 243.59375 617.339844 243.457031 C 606.652344 219.078125 578.433594 201.125 544.125 200.777344 L 373.089844 200.777344 L 373.089844 328.746094 L 544 328.746094 C 578.601562 328.398438 606.820312 310.71875 617.257812 286.066406 Z M 617.257812 286.066406 " clip-rule="nonzero"/></clipPath><clipPath id="be12765fae"><path d="M 0.0898438 0.777344 L 248.839844 0.777344 L 248.839844 128.746094 L 0.0898438 128.746094 Z M 0.0898438 0.777344 " clip-rule="nonzero"/></clipPath><clipPath id="87be7c9eec"><path d="M 244.257812 86.066406 C 246.929688 79.503906 248.679688 72.046875 248.679688 64.726562 C 248.679688 57.40625 247.179688 50.363281 244.507812 43.871094 C 244.421875 43.734375 244.421875 43.59375 244.339844 43.457031 C 233.652344 19.078125 205.433594 1.125 171.125 0.777344 L 0.0898438 0.777344 L 0.0898438 128.746094 L 171 128.746094 C 205.601562 128.398438 233.820312 110.71875 244.257812 86.066406 Z M 244.257812 86.066406 " clip-rule="nonzero"/></clipPath><clipPath id="92ce2837c4"><rect x="0" width="249" y="0" height="129"/></clipPath><clipPath id="675d79b9ee"><path d="M 373.09375 430.609375 L 634.675781 430.609375 L 634.675781 594.339844 L 373.09375 594.339844 Z M 373.09375 430.609375 " clip-rule="nonzero"/></clipPath><clipPath id="3cefd19e24"><path d="M 629.476562 539.734375 C 632.332031 531.339844 634.203125 521.796875 634.203125 512.429688 C 634.203125 503.066406 632.597656 494.050781 629.742188 485.746094 C 629.65625 485.570312 629.65625 485.394531 629.566406 485.214844 C 618.148438 454.027344 587.996094 431.050781 551.4375 430.609375 L 373.09375 430.609375 L 373.09375 594.339844 L 551.304688 594.339844 C 588.175781 593.898438 618.324219 571.277344 629.476562 539.734375 Z M 629.476562 539.734375 " clip-rule="nonzero"/></clipPath><clipPath id="2654026c4c"><path d="M 0.09375 0.609375 L 261.320312 0.609375 L 261.320312 164.339844 L 0.09375 164.339844 Z M 0.09375 0.609375 " clip-rule="nonzero"/></clipPath><clipPath id="8ae8baf5e4"><path d="M 256.476562 109.734375 C 259.332031 101.339844 261.203125 91.796875 261.203125 82.429688 C 261.203125 73.066406 259.597656 64.050781 256.742188 55.746094 C 256.65625 55.570312 256.65625 55.394531 256.566406 55.214844 C 245.148438 24.027344 214.996094 1.050781 178.4375 0.609375 L 0.09375 0.609375 L 0.09375 164.339844 L 178.304688 164.339844 C 215.175781 163.898438 245.324219 141.277344 256.476562 109.734375 Z M 256.476562 109.734375 " clip-rule="nonzero"/></clipPath><clipPath id="00f6a5a945"><rect x="0" width="262" y="0" height="165"/></clipPath><clipPath id="cdb5cf0dba"><path d="M 373.089844 448.492188 L 622 448.492188 L 622 576.460938 L 373.089844 576.460938 Z M 373.089844 448.492188 " clip-rule="nonzero"/></clipPath><clipPath id="7387469b53"><path d="M 617.257812 533.78125 C 619.929688 527.21875 621.679688 519.761719 621.679688 512.441406 C 621.679688 505.121094 620.179688 498.078125 617.507812 491.585938 C 617.421875 491.449219 617.421875 491.308594 617.339844 491.171875 C 606.652344 466.792969 578.433594 448.839844 544.125 448.492188 L 373.089844 448.492188 L 373.089844 576.460938 L 544 576.460938 C 578.601562 576.113281 606.820312 558.433594 617.257812 533.78125 Z M 617.257812 533.78125 " clip-rule="nonzero"/></clipPath><clipPath id="ea5847957a"><path d="M 0.0898438 0.492188 L 248.839844 0.492188 L 248.839844 128.460938 L 0.0898438 128.460938 Z M 0.0898438 0.492188 " clip-rule="nonzero"/></clipPath><clipPath id="88397f200d"><path d="M 244.257812 85.78125 C 246.929688 79.21875 248.679688 71.761719 248.679688 64.441406 C 248.679688 57.121094 247.179688 50.078125 244.507812 43.585938 C 244.421875 43.449219 244.421875 43.308594 244.339844 43.171875 C 233.652344 18.792969 205.433594 0.839844 171.125 0.492188 L 0.0898438 0.492188 L 0.0898438 128.460938 L 171 128.460938 C 205.601562 128.113281 233.820312 110.433594 244.257812 85.78125 Z M 244.257812 85.78125 " clip-rule="nonzero"/></clipPath><clipPath id="b431c39660"><rect x="0" width="249" y="0" height="129"/></clipPath><clipPath id="60bf92541f"><path d="M 373.097656 450.757812 L 570 450.757812 L 570 574.1875 L 373.097656 574.1875 Z M 373.097656 450.757812 " clip-rule="nonzero"/></clipPath><clipPath id="4e1403369b"><path d="M 566.371094 533.023438 C 568.523438 526.695312 569.933594 519.5 569.933594 512.441406 C 569.933594 505.378906 568.722656 498.585938 566.570312 492.324219 C 566.503906 492.191406 566.503906 492.058594 566.4375 491.925781 C 557.828125 468.410156 535.101562 451.09375 507.539062 450.757812 L 373.097656 450.757812 L 373.097656 574.1875 L 507.441406 574.1875 C 535.234375 573.855469 557.964844 556.800781 566.371094 533.023438 Z M 566.371094 533.023438 " clip-rule="nonzero"/></clipPath><clipPath id="84c4bb05f2"><path d="M 0.0976562 0.757812 L 197 0.757812 L 197 124.1875 L 0.0976562 124.1875 Z M 0.0976562 0.757812 " clip-rule="nonzero"/></clipPath><clipPath id="7f1b485b9b"><path d="M 193.371094 83.023438 C 195.523438 76.695312 196.933594 69.5 196.933594 62.441406 C 196.933594 55.378906 195.722656 48.585938 193.570312 42.324219 C 193.503906 42.191406 193.503906 42.058594 193.4375 41.925781 C 184.828125 18.410156 162.101562 1.09375 134.539062 0.757812 L 0.0976562 0.757812 L 0.0976562 124.1875 L 134.441406 124.1875 C 162.234375 123.855469 184.964844 106.800781 193.371094 83.023438 Z M 193.371094 83.023438 " clip-rule="nonzero"/></clipPath><clipPath id="8711334c47"><rect x="0" width="197" y="0" height="125"/></clipPath><clipPath id="b76a6546e2"><path d="M 373.089844 464.238281 L 560.75 464.238281 L 560.75 560.707031 L 373.089844 560.707031 Z M 373.089844 464.238281 " clip-rule="nonzero"/></clipPath><clipPath id="5aa1e7dd78"><path d="M 557.15625 528.535156 C 559.171875 523.589844 560.492188 517.964844 560.492188 512.449219 C 560.492188 506.929688 559.359375 501.617188 557.34375 496.726562 C 557.28125 496.621094 557.28125 496.515625 557.21875 496.414062 C 549.164062 478.035156 527.890625 464.5 502.027344 464.238281 L 373.089844 464.238281 L 373.089844 560.707031 L 501.929688 560.707031 C 528.015625 560.445312 549.289062 547.121094 557.15625 528.535156 Z M 557.15625 528.535156 " clip-rule="nonzero"/></clipPath><clipPath id="b37fe32695"><path d="M 0.0898438 0.238281 L 187.640625 0.238281 L 187.640625 96.707031 L 0.0898438 96.707031 Z M 0.0898438 0.238281 " clip-rule="nonzero"/></clipPath><clipPath id="f9ac1f3571"><path d="M 184.15625 64.535156 C 186.171875 59.589844 187.492188 53.964844 187.492188 48.449219 C 187.492188 42.929688 186.359375 37.617188 184.34375 32.726562 C 184.28125 32.621094 184.28125 32.515625 184.21875 32.414062 C 176.164062 14.035156 154.890625 0.5 129.027344 0.238281 L 0.0898438 0.238281 L 0.0898438 96.707031 L 128.929688 96.707031 C 155.015625 96.445312 176.289062 83.121094 184.15625 64.535156 Z M 184.15625 64.535156 " clip-rule="nonzero"/></clipPath><clipPath id="88fb76949c"><rect x="0" width="188" y="0" height="97"/></clipPath></defs><g clip-path="url(#8ed250b762)"><g clip-path="url(#3b5efb1572)"><g transform="matrix(1, 0, 0, 1, 22, 10)"><g clip-path="url(#ef135f9077)"><g clip-path="url(#56f9f6bf33)"><g clip-path="url(#361b52ecaf)"><path fill="#000000" d="M 0.148438 0.714844 L 723.851562 0.714844 L 723.851562 747.03125 L 0.148438 747.03125 Z M 0.148438 0.714844 " fill-opacity="1" fill-rule="nonzero"/></g></g></g></g></g></g><g clip-path="url(#39d67ebbb3)"><g clip-path="url(#efd9959f77)"><g transform="matrix(1, 0, 0, 1, 88, 103)"><g clip-path="url(#f2b719521a)"><g clip-path="url(#ae3eea93c3)"><g clip-path="url(#744f2e3a56)"><path fill="#ffffff" d="M 273.679688 654.28125 L 0.113281 654.28125 L 0.113281 1.359375 L 273.679688 1.359375 Z M 273.679688 654.28125 " fill-opacity="1" fill-rule="nonzero"/></g></g></g></g></g></g><g clip-path="url(#1e024724ef)"><g clip-path="url(#754e9c7610)"><g transform="matrix(1, 0, 0, 1, 117, 135)"><g clip-path="url(#30a999bafd)"><g clip-path="url(#80f1d55c62)"><g clip-path="url(#639206d4fe)"><path fill="#000000" d="M 214.800781 622.28125 L 0.992188 622.28125 L 0.992188 0.0625 L 214.800781 0.0625 Z M 214.800781 622.28125 " fill-opacity="1" fill-rule="nonzero"/></g></g></g></g></g></g><g clip-path="url(#cda91220a2)"><g clip-path="url(#e33b7fce82)"><g transform="matrix(1, 0, 0, 1, 121, 264)"><g clip-path="url(#a2f8838b12)"><g clip-path="url(#8d3a88ea96)"><g clip-path="url(#3128dbd657)"><path fill="#ffffff" d="M 207.011719 493.28125 L 0.785156 493.28125 L 0.785156 1.078125 L 207.011719 1.078125 Z M 207.011719 493.28125 " fill-opacity="1" fill-rule="nonzero"/></g></g></g></g></g></g><g clip-path="url(#15e79589a0)"><g clip-path="url(#5745b9f6c6)"><g transform="matrix(1, 0, 0, 1, 144, 288)"><g clip-path="url(#4f516f9ebc)"><g clip-path="url(#479020bf2c)"><g clip-path="url(#a1dd0e8bee)"><path fill="#000000" d="M 161.488281 469.285156 L 0.308594 469.285156 L 0.308594 0.222656 L 161.488281 0.222656 Z M 161.488281 469.285156 " fill-opacity="1" fill-rule="nonzero"/></g></g></g></g></g></g><g clip-path="url(#e14115c845)"><g clip-path="url(#d86f78c5c4)"><g transform="matrix(1, 0, 0, 1, 373, 156)"><g clip-path="url(#7893e59bd1)"><g clip-path="url(#53cb2d65f5)"><g clip-path="url(#f7e35c839e)"><path fill="#ffffff" d="M 0.09375 217.355469 L 0.09375 0.164062 L 346.242188 0.164062 L 346.242188 217.355469 Z M 0.09375 217.355469 " fill-opacity="1" fill-rule="nonzero"/></g></g></g></g></g></g><g clip-path="url(#723619b846)"><g clip-path="url(#a0a0ad3d06)"><g transform="matrix(1, 0, 0, 1, 373, 179)"><g clip-path="url(#42a078e25a)"><g clip-path="url(#97ee7f3c3b)"><g clip-path="url(#8633e98ee1)"><path fill="#000000" d="M 0.09375 170.636719 L 0.09375 0.886719 L 329.648438 0.886719 L 329.648438 170.636719 Z M 0.09375 170.636719 " fill-opacity="1" fill-rule="nonzero"/></g></g></g></g></g></g><g clip-path="url(#53633c7d51)"><g clip-path="url(#256bf45402)"><g transform="matrix(1, 0, 0, 1, 373, 182)"><g clip-path="url(#c1e870697a)"><g clip-path="url(#e451beb67b)"><g clip-path="url(#466db83a14)"><path fill="#ffffff" d="M 0.09375 164.625 L 0.09375 0.894531 L 261.039062 0.894531 L 261.039062 164.625 Z M 0.09375 164.625 " fill-opacity="1" fill-rule="nonzero"/></g></g></g></g></g></g><g clip-path="url(#ebea4cef63)"><g clip-path="url(#9a33b1121d)"><g transform="matrix(1, 0, 0, 1, 373, 200)"><g clip-path="url(#92ce2837c4)"><g clip-path="url(#be12765fae)"><g clip-path="url(#87be7c9eec)"><path fill="#000000" d="M 0.0898438 128.746094 L 0.0898438 0.777344 L 248.523438 0.777344 L 248.523438 128.746094 Z M 0.0898438 128.746094 " fill-opacity="1" fill-rule="nonzero"/></g></g></g></g></g></g><g clip-path="url(#675d79b9ee)"><g clip-path="url(#3cefd19e24)"><g transform="matrix(1, 0, 0, 1, 373, 430)"><g clip-path="url(#00f6a5a945)"><g clip-path="url(#2654026c4c)"><g clip-path="url(#8ae8baf5e4)"><path fill="#ffffff" d="M 0.09375 164.339844 L 0.09375 0.609375 L 261.039062 0.609375 L 261.039062 164.339844 Z M 0.09375 164.339844 " fill-opacity="1" fill-rule="nonzero"/></g></g></g></g></g></g><g clip-path="url(#cdb5cf0dba)"><g clip-path="url(#7387469b53)"><g transform="matrix(1, 0, 0, 1, 373, 448)"><g clip-path="url(#b431c39660)"><g clip-path="url(#ea5847957a)"><g clip-path="url(#88397f200d)"><path fill="#000000" d="M 0.0898438 128.460938 L 0.0898438 0.492188 L 248.523438 0.492188 L 248.523438 128.460938 Z M 0.0898438 128.460938 " fill-opacity="1" fill-rule="nonzero"/></g></g></g></g></g></g><g clip-path="url(#60bf92541f)"><g clip-path="url(#4e1403369b)"><g transform="matrix(1, 0, 0, 1, 373, 450)"><g clip-path="url(#8711334c47)"><g clip-path="url(#84c4bb05f2)"><g clip-path="url(#7f1b485b9b)"><path fill="#ffffff" d="M 0.0976562 124.1875 L 0.0976562 0.757812 L 196.808594 0.757812 L 196.808594 124.1875 Z M 0.0976562 124.1875 " fill-opacity="1" fill-rule="nonzero"/></g></g></g></g></g></g><g clip-path="url(#b76a6546e2)"><g clip-path="url(#5aa1e7dd78)"><g transform="matrix(1, 0, 0, 1, 373, 464)"><g clip-path="url(#88fb76949c)"><g clip-path="url(#b37fe32695)"><g clip-path="url(#f9ac1f3571)"><path fill="#000000" d="M 0.0898438 96.707031 L 0.0898438 0.238281 L 187.375 0.238281 L 187.375 96.707031 Z M 0.0898438 96.707031 " fill-opacity="1" fill-rule="nonzero"/></g></g></g></g></g></g></svg>