<svg xmlns="http://www.w3.org/2000/svg" xmlns:xlink="http://www.w3.org/1999/xlink" width="1024" zoomAndPan="magnify" viewBox="0 0 768 767.999994" height="1024" preserveAspectRatio="xMidYMid meet" version="1.0"><defs><clipPath id="feeae11c4c"><path d="M 331.800781 135.269531 L 750 135.269531 L 750 383.996094 L 331.800781 383.996094 Z M 331.800781 135.269531 " clip-rule="nonzero"/></clipPath><clipPath id="0dcd97571c"><path d="M 743.890625 301.042969 C 747.4375 288.292969 749.761719 273.792969 749.761719 259.566406 C 749.761719 245.339844 747.769531 231.648438 744.222656 219.03125 C 744.113281 218.761719 744.113281 218.492188 744.003906 218.222656 C 729.828125 170.839844 692.394531 135.941406 644.921875 135.269531 L 331.800781 135.269531 L 331.800781 383.996094 L 644.691406 383.996094 C 692.617188 383.324219 730.050781 348.960938 743.890625 301.042969 Z M 743.890625 301.042969 " clip-rule="nonzero"/></clipPath><clipPath id="967d941760"><path d="M 0.800781 0.269531 L 419 0.269531 L 419 248.996094 L 0.800781 248.996094 Z M 0.800781 0.269531 " clip-rule="nonzero"/></clipPath><clipPath id="2be17083e0"><path d="M 412.890625 166.042969 C 416.4375 153.292969 418.761719 138.792969 418.761719 124.566406 C 418.761719 110.339844 416.769531 96.648438 413.222656 84.03125 C 413.113281 83.761719 413.113281 83.492188 413.003906 83.222656 C 398.828125 35.839844 361.394531 0.941406 313.921875 0.269531 L 0.800781 0.269531 L 0.800781 248.996094 L 313.691406 248.996094 C 361.617188 248.324219 399.050781 213.960938 412.890625 166.042969 Z M 412.890625 166.042969 " clip-rule="nonzero"/></clipPath><clipPath id="b8fd62bd73"><rect x="0" width="419" y="0" height="249"/></clipPath><clipPath id="d38205d09e"><path d="M 340.90625 413.96875 L 650.804688 413.96875 L 650.804688 607.464844 L 340.90625 607.464844 Z M 340.90625 413.96875 " clip-rule="nonzero"/></clipPath><clipPath id="d50f1d5dee"><path d="M 644.660156 542.933594 C 648.203125 533.011719 650.527344 521.734375 650.527344 510.664062 C 650.527344 499.597656 648.535156 488.945312 644.988281 479.128906 C 644.878906 478.917969 644.878906 478.710938 644.769531 478.503906 C 630.59375 441.640625 593.160156 414.488281 548.09375 413.96875 L 340.90625 413.96875 L 340.90625 607.464844 L 547.941406 607.464844 C 593.382812 606.945312 630.816406 580.210938 644.660156 542.933594 Z M 644.660156 542.933594 " clip-rule="nonzero"/></clipPath><clipPath id="1c6b6757b7"><path d="M 0.90625 0.96875 L 310.640625 0.96875 L 310.640625 194.464844 L 0.90625 194.464844 Z M 0.90625 0.96875 " clip-rule="nonzero"/></clipPath><clipPath id="4db22d8d10"><path d="M 304.660156 129.933594 C 308.203125 120.011719 310.527344 108.734375 310.527344 97.664062 C 310.527344 86.597656 308.535156 75.945312 304.988281 66.128906 C 304.878906 65.917969 304.878906 65.710938 304.769531 65.503906 C 290.59375 28.640625 253.160156 1.488281 208.09375 0.96875 L 0.90625 0.96875 L 0.90625 194.464844 L 207.941406 194.464844 C 253.382812 193.945312 290.816406 167.210938 304.660156 129.933594 Z M 304.660156 129.933594 " clip-rule="nonzero"/></clipPath><clipPath id="3c63fd7ac1"><rect x="0" width="311" y="0" height="195"/></clipPath><clipPath id="dc79ba2d0f"><path d="M 76.800781 76.046875 L 378.570312 76.046875 L 378.570312 767.996094 L 76.800781 767.996094 Z M 76.800781 76.046875 " clip-rule="nonzero"/></clipPath><clipPath id="8030bdfc61"><path d="M 277.925781 84.925781 C 262.453125 80.015625 244.867188 76.796875 227.601562 76.796875 C 210.339844 76.796875 193.730469 79.558594 178.421875 84.464844 C 178.09375 84.621094 177.769531 84.621094 177.445312 84.773438 C 119.957031 104.410156 77.613281 156.261719 76.800781 224.511719 L 76.800781 767.996094 L 378.570312 767.996094 L 378.570312 224.917969 C 377.753906 155.953125 336.0625 104.101562 277.925781 84.925781 Z M 277.925781 84.925781 " clip-rule="nonzero"/></clipPath><clipPath id="126c281308"><path d="M 0.800781 1 L 302.570312 1 L 302.570312 691.996094 L 0.800781 691.996094 Z M 0.800781 1 " clip-rule="nonzero"/></clipPath><clipPath id="d39ba7ab20"><path d="M 201.925781 8.925781 C 186.453125 4.015625 168.867188 0.796875 151.601562 0.796875 C 134.339844 0.796875 117.730469 3.558594 102.421875 8.464844 C 102.09375 8.621094 101.769531 8.621094 101.445312 8.773438 C 43.957031 28.410156 1.613281 80.261719 0.800781 148.511719 L 0.800781 691.996094 L 302.570312 691.996094 L 302.570312 148.917969 C 301.753906 79.953125 260.0625 28.101562 201.925781 8.925781 Z M 201.925781 8.925781 " clip-rule="nonzero"/></clipPath><clipPath id="59cd744dd2"><rect x="0" width="303" y="0" height="692"/></clipPath><clipPath id="a9cb51d530"><path d="M 88.113281 103.289062 L 361.679688 103.289062 L 361.679688 757.28125 L 88.113281 757.28125 Z M 88.113281 103.289062 " clip-rule="nonzero"/></clipPath><clipPath id="40b5f826e4"><path d="M 270.441406 111.84375 C 256.417969 107.074219 240.472656 103.945312 224.824219 103.945312 C 209.171875 103.945312 194.113281 106.628906 180.238281 111.398438 C 179.941406 111.546875 179.648438 111.546875 179.351562 111.695312 C 127.238281 130.773438 88.851562 181.152344 88.113281 247.058594 L 88.113281 757.28125 L 361.679688 757.28125 L 361.679688 247.4375 C 360.941406 180.851562 323.148438 130.476562 270.441406 111.84375 Z M 270.441406 111.84375 " clip-rule="nonzero"/></clipPath><clipPath id="f3fc7d5ddc"><path d="M 0.113281 1 L 273.679688 1 L 273.679688 654.28125 L 0.113281 654.28125 Z M 0.113281 1 " clip-rule="nonzero"/></clipPath><clipPath id="85d3545b4b"><path d="M 182.441406 8.84375 C 168.417969 4.074219 152.472656 0.945312 136.824219 0.945312 C 121.171875 0.945312 106.113281 3.628906 92.238281 8.398438 C 91.941406 8.546875 91.648438 8.546875 91.351562 8.695312 C 39.238281 27.773438 0.851562 78.152344 0.113281 144.058594 L 0.113281 654.28125 L 273.679688 654.28125 L 273.679688 144.4375 C 272.941406 77.851562 235.148438 27.476562 182.441406 8.84375 Z M 182.441406 8.84375 " clip-rule="nonzero"/></clipPath><clipPath id="062a8e1bf2"><rect x="0" width="274" y="0" height="655"/></clipPath><clipPath id="31c10dec4f"><path d="M 117.992188 135.0625 L 331.800781 135.0625 L 331.800781 757.28125 L 117.992188 757.28125 Z M 117.992188 135.0625 " clip-rule="nonzero"/></clipPath><clipPath id="d1e8729b08"><path d="M 260.496094 142.664062 C 249.53125 138.203125 237.070312 135.273438 224.839844 135.273438 C 212.609375 135.273438 200.839844 137.785156 189.992188 142.246094 C 189.761719 142.386719 189.53125 142.386719 189.300781 142.527344 C 148.570312 160.378906 118.570312 207.527344 117.992188 269.445312 L 117.992188 757.28125 L 331.800781 757.28125 L 331.800781 269.808594 C 331.226562 207.25 301.6875 160.101562 260.496094 142.664062 Z M 260.496094 142.664062 " clip-rule="nonzero"/></clipPath><clipPath id="740841bcd2"><path d="M 0.992188 0.121094 L 214.800781 0.121094 L 214.800781 622.28125 L 0.992188 622.28125 Z M 0.992188 0.121094 " clip-rule="nonzero"/></clipPath><clipPath id="8c5578fc9e"><path d="M 143.496094 7.664062 C 132.53125 3.203125 120.070312 0.273438 107.839844 0.273438 C 95.609375 0.273438 83.839844 2.785156 72.992188 7.246094 C 72.761719 7.386719 72.53125 7.386719 72.300781 7.527344 C 31.570312 25.378906 1.570312 72.527344 0.992188 134.445312 L 0.992188 622.28125 L 214.800781 622.28125 L 214.800781 134.808594 C 214.226562 72.25 184.6875 25.101562 143.496094 7.664062 Z M 143.496094 7.664062 " clip-rule="nonzero"/></clipPath><clipPath id="62e9af623b"><rect x="0" width="215" y="0" height="623"/></clipPath><clipPath id="a22d77cbd0"><path d="M 121.785156 264.273438 L 328.011719 264.273438 L 328.011719 757.28125 L 121.785156 757.28125 Z M 121.785156 264.273438 " clip-rule="nonzero"/></clipPath><clipPath id="3c775a7e86"><path d="M 259.234375 270.71875 C 248.660156 267.125 236.640625 264.765625 224.84375 264.765625 C 213.046875 264.765625 201.695312 266.789062 191.234375 270.382812 C 191.007812 270.496094 190.789062 270.496094 190.566406 270.609375 C 151.277344 284.988281 122.339844 322.96875 121.785156 372.652344 L 121.785156 757.28125 L 328.011719 757.28125 L 328.011719 372.9375 C 327.457031 322.742188 298.964844 284.765625 259.234375 270.71875 Z M 259.234375 270.71875 " clip-rule="nonzero"/></clipPath><clipPath id="3edee4fa29"><path d="M 0.785156 1 L 207.011719 1 L 207.011719 493.28125 L 0.785156 493.28125 Z M 0.785156 1 " clip-rule="nonzero"/></clipPath><clipPath id="c892519875"><path d="M 138.234375 6.71875 C 127.660156 3.125 115.640625 0.765625 103.84375 0.765625 C 92.046875 0.765625 80.695312 2.789062 70.234375 6.382812 C 70.007812 6.496094 69.789062 6.496094 69.566406 6.609375 C 30.277344 20.988281 1.339844 58.96875 0.785156 108.652344 L 0.785156 493.28125 L 207.011719 493.28125 L 207.011719 108.9375 C 206.457031 58.742188 177.964844 20.765625 138.234375 6.71875 Z M 138.234375 6.71875 " clip-rule="nonzero"/></clipPath><clipPath id="b585ed6ba9"><rect x="0" width="208" y="0" height="494"/></clipPath><clipPath id="55c6d2e92d"><path d="M 144.308594 288.222656 L 305.488281 288.222656 L 305.488281 757.285156 L 144.308594 757.285156 Z M 144.308594 288.222656 " clip-rule="nonzero"/></clipPath><clipPath id="13bb3c94a5"><path d="M 251.734375 293.953125 C 243.46875 290.589844 234.074219 288.382812 224.855469 288.382812 C 215.632812 288.382812 206.761719 290.273438 198.585938 293.640625 C 198.410156 293.746094 198.238281 293.746094 198.0625 293.851562 C 167.359375 307.308594 144.742188 342.851562 144.308594 389.527344 L 144.308594 757.285156 L 305.488281 757.285156 L 305.488281 389.800781 C 305.054688 342.640625 282.785156 307.097656 251.734375 293.953125 Z M 251.734375 293.953125 " clip-rule="nonzero"/></clipPath><clipPath id="381d5d935f"><path d="M 0.308594 0.238281 L 161.488281 0.238281 L 161.488281 469.285156 L 0.308594 469.285156 Z M 0.308594 0.238281 " clip-rule="nonzero"/></clipPath><clipPath id="9e895cf30f"><path d="M 107.734375 5.953125 C 99.46875 2.589844 90.074219 0.382812 80.855469 0.382812 C 71.632812 0.382812 62.761719 2.273438 54.585938 5.640625 C 54.410156 5.746094 54.238281 5.746094 54.0625 5.851562 C 23.359375 19.308594 0.742188 54.851562 0.308594 101.527344 L 0.308594 469.285156 L 161.488281 469.285156 L 161.488281 101.800781 C 161.054688 54.640625 138.785156 19.097656 107.734375 5.953125 Z M 107.734375 5.953125 " clip-rule="nonzero"/></clipPath><clipPath id="ab25c9d630"><rect x="0" width="162" y="0" height="470"/></clipPath><clipPath id="007e48fd5a"><path d="M 373.09375 156.164062 L 720 156.164062 L 720 373.355469 L 373.09375 373.355469 Z M 373.09375 156.164062 " clip-rule="nonzero"/></clipPath><clipPath id="cd947e739f"><path d="M 713.195312 300.917969 C 716.980469 289.78125 719.464844 277.125 719.464844 264.699219 C 719.464844 252.273438 717.335938 240.320312 713.546875 229.300781 C 713.429688 229.066406 713.429688 228.832031 713.3125 228.597656 C 698.164062 187.222656 658.167969 156.75 609.671875 156.164062 L 373.09375 156.164062 L 373.09375 373.355469 L 609.496094 373.355469 C 658.40625 372.765625 698.402344 342.761719 713.195312 300.917969 Z M 713.195312 300.917969 " clip-rule="nonzero"/></clipPath><clipPath id="f295f4f715"><path d="M 0.09375 0.164062 L 346.519531 0.164062 L 346.519531 217.355469 L 0.09375 217.355469 Z M 0.09375 0.164062 " clip-rule="nonzero"/></clipPath><clipPath id="966c111a69"><path d="M 340.195312 144.917969 C 343.980469 133.78125 346.464844 121.125 346.464844 108.699219 C 346.464844 96.273438 344.335938 84.320312 340.546875 73.300781 C 340.429688 73.066406 340.429688 72.832031 340.3125 72.597656 C 325.164062 31.222656 285.167969 0.75 236.671875 0.164062 L 0.09375 0.164062 L 0.09375 217.355469 L 236.496094 217.355469 C 285.40625 216.765625 325.402344 186.761719 340.195312 144.917969 Z M 340.195312 144.917969 " clip-rule="nonzero"/></clipPath><clipPath id="7d122602a9"><rect x="0" width="347" y="0" height="218"/></clipPath><clipPath id="cf59b77467"><path d="M 373.09375 179.886719 L 703 179.886719 L 703 349.636719 L 373.09375 349.636719 Z M 373.09375 179.886719 " clip-rule="nonzero"/></clipPath><clipPath id="6c11f8a208"><path d="M 696.988281 293.023438 C 700.53125 284.320312 702.859375 274.425781 702.859375 264.714844 C 702.859375 255.003906 700.863281 245.660156 697.320312 237.050781 C 697.210938 236.867188 697.210938 236.683594 697.097656 236.5 C 682.921875 204.160156 645.492188 180.34375 599.976562 179.886719 L 373.09375 179.886719 L 373.09375 349.636719 L 599.808594 349.636719 C 645.710938 349.179688 683.144531 325.726562 696.988281 293.023438 Z M 696.988281 293.023438 " clip-rule="nonzero"/></clipPath><clipPath id="1b908b2f2f"><path d="M 0.09375 0.886719 L 329.960938 0.886719 L 329.960938 170.636719 L 0.09375 170.636719 Z M 0.09375 0.886719 " clip-rule="nonzero"/></clipPath><clipPath id="a2d4d7e39d"><path d="M 323.988281 114.023438 C 327.53125 105.320312 329.859375 95.425781 329.859375 85.714844 C 329.859375 76.003906 327.863281 66.660156 324.320312 58.050781 C 324.210938 57.867188 324.210938 57.683594 324.097656 57.5 C 309.921875 25.160156 272.492188 1.34375 226.976562 0.886719 L 0.09375 0.886719 L 0.09375 170.636719 L 226.808594 170.636719 C 272.710938 170.179688 310.144531 146.726562 323.988281 114.023438 Z M 323.988281 114.023438 " clip-rule="nonzero"/></clipPath><clipPath id="80a4b837bb"><rect x="0" width="330" y="0" height="171"/></clipPath><clipPath id="d6567f4e3f"><path d="M 373.09375 182.894531 L 634.675781 182.894531 L 634.675781 346.625 L 373.09375 346.625 Z M 373.09375 182.894531 " clip-rule="nonzero"/></clipPath><clipPath id="2282516e06"><path d="M 629.476562 292.019531 C 632.332031 283.625 634.203125 274.082031 634.203125 264.714844 C 634.203125 255.351562 632.597656 246.335938 629.742188 238.03125 C 629.65625 237.855469 629.65625 237.679688 629.566406 237.5 C 618.148438 206.3125 587.996094 183.335938 551.4375 182.894531 L 373.09375 182.894531 L 373.09375 346.625 L 551.304688 346.625 C 588.175781 346.183594 618.324219 323.5625 629.476562 292.019531 Z M 629.476562 292.019531 " clip-rule="nonzero"/></clipPath><clipPath id="2293ce01d5"><path d="M 0.09375 0.894531 L 261.320312 0.894531 L 261.320312 164.625 L 0.09375 164.625 Z M 0.09375 0.894531 " clip-rule="nonzero"/></clipPath><clipPath id="c247e500c4"><path d="M 256.476562 110.019531 C 259.332031 101.625 261.203125 92.082031 261.203125 82.714844 C 261.203125 73.351562 259.597656 64.335938 256.742188 56.03125 C 256.65625 55.855469 256.65625 55.679688 256.566406 55.5 C 245.148438 24.3125 214.996094 1.335938 178.4375 0.894531 L 0.09375 0.894531 L 0.09375 164.625 L 178.304688 164.625 C 215.175781 164.183594 245.324219 141.5625 256.476562 110.019531 Z M 256.476562 110.019531 " clip-rule="nonzero"/></clipPath><clipPath id="86a32dbbd8"><rect x="0" width="262" y="0" height="165"/></clipPath><clipPath id="588040dabf"><path d="M 373.089844 200.777344 L 622 200.777344 L 622 328.746094 L 373.089844 328.746094 Z M 373.089844 200.777344 " clip-rule="nonzero"/></clipPath><clipPath id="d2785f2efb"><path d="M 617.257812 286.066406 C 619.929688 279.503906 621.679688 272.046875 621.679688 264.726562 C 621.679688 257.40625 620.179688 250.363281 617.507812 243.871094 C 617.421875 243.734375 617.421875 243.59375 617.339844 243.457031 C 606.652344 219.078125 578.433594 201.125 544.125 200.777344 L 373.089844 200.777344 L 373.089844 328.746094 L 544 328.746094 C 578.601562 328.398438 606.820312 310.71875 617.257812 286.066406 Z M 617.257812 286.066406 " clip-rule="nonzero"/></clipPath><clipPath id="29bd170981"><path d="M 0.0898438 0.777344 L 248.839844 0.777344 L 248.839844 128.746094 L 0.0898438 128.746094 Z M 0.0898438 0.777344 " clip-rule="nonzero"/></clipPath><clipPath id="a857932d73"><path d="M 244.257812 86.066406 C 246.929688 79.503906 248.679688 72.046875 248.679688 64.726562 C 248.679688 57.40625 247.179688 50.363281 244.507812 43.871094 C 244.421875 43.734375 244.421875 43.59375 244.339844 43.457031 C 233.652344 19.078125 205.433594 1.125 171.125 0.777344 L 0.0898438 0.777344 L 0.0898438 128.746094 L 171 128.746094 C 205.601562 128.398438 233.820312 110.71875 244.257812 86.066406 Z M 244.257812 86.066406 " clip-rule="nonzero"/></clipPath><clipPath id="5d17e3cf56"><rect x="0" width="249" y="0" height="129"/></clipPath><clipPath id="f8a2223e4a"><path d="M 373.09375 430.609375 L 634.675781 430.609375 L 634.675781 594.339844 L 373.09375 594.339844 Z M 373.09375 430.609375 " clip-rule="nonzero"/></clipPath><clipPath id="4dafe248f7"><path d="M 629.476562 539.734375 C 632.332031 531.339844 634.203125 521.796875 634.203125 512.429688 C 634.203125 503.066406 632.597656 494.050781 629.742188 485.746094 C 629.65625 485.570312 629.65625 485.394531 629.566406 485.214844 C 618.148438 454.027344 587.996094 431.050781 551.4375 430.609375 L 373.09375 430.609375 L 373.09375 594.339844 L 551.304688 594.339844 C 588.175781 593.898438 618.324219 571.277344 629.476562 539.734375 Z M 629.476562 539.734375 " clip-rule="nonzero"/></clipPath><clipPath id="9f01263ea1"><path d="M 0.09375 0.609375 L 261.320312 0.609375 L 261.320312 164.339844 L 0.09375 164.339844 Z M 0.09375 0.609375 " clip-rule="nonzero"/></clipPath><clipPath id="3e4799c479"><path d="M 256.476562 109.734375 C 259.332031 101.339844 261.203125 91.796875 261.203125 82.429688 C 261.203125 73.066406 259.597656 64.050781 256.742188 55.746094 C 256.65625 55.570312 256.65625 55.394531 256.566406 55.214844 C 245.148438 24.027344 214.996094 1.050781 178.4375 0.609375 L 0.09375 0.609375 L 0.09375 164.339844 L 178.304688 164.339844 C 215.175781 163.898438 245.324219 141.277344 256.476562 109.734375 Z M 256.476562 109.734375 " clip-rule="nonzero"/></clipPath><clipPath id="8c62495f4a"><rect x="0" width="262" y="0" height="165"/></clipPath><clipPath id="9ea37a7a2f"><path d="M 373.089844 448.492188 L 622 448.492188 L 622 576.460938 L 373.089844 576.460938 Z M 373.089844 448.492188 " clip-rule="nonzero"/></clipPath><clipPath id="509468b5e7"><path d="M 617.257812 533.78125 C 619.929688 527.21875 621.679688 519.761719 621.679688 512.441406 C 621.679688 505.121094 620.179688 498.078125 617.507812 491.585938 C 617.421875 491.449219 617.421875 491.308594 617.339844 491.171875 C 606.652344 466.792969 578.433594 448.839844 544.125 448.492188 L 373.089844 448.492188 L 373.089844 576.460938 L 544 576.460938 C 578.601562 576.113281 606.820312 558.433594 617.257812 533.78125 Z M 617.257812 533.78125 " clip-rule="nonzero"/></clipPath><clipPath id="f75097cd23"><path d="M 0.0898438 0.492188 L 248.839844 0.492188 L 248.839844 128.460938 L 0.0898438 128.460938 Z M 0.0898438 0.492188 " clip-rule="nonzero"/></clipPath><clipPath id="0560ff1620"><path d="M 244.257812 85.78125 C 246.929688 79.21875 248.679688 71.761719 248.679688 64.441406 C 248.679688 57.121094 247.179688 50.078125 244.507812 43.585938 C 244.421875 43.449219 244.421875 43.308594 244.339844 43.171875 C 233.652344 18.792969 205.433594 0.839844 171.125 0.492188 L 0.0898438 0.492188 L 0.0898438 128.460938 L 171 128.460938 C 205.601562 128.113281 233.820312 110.433594 244.257812 85.78125 Z M 244.257812 85.78125 " clip-rule="nonzero"/></clipPath><clipPath id="a5eda32eed"><rect x="0" width="249" y="0" height="129"/></clipPath><clipPath id="a7c3680c6a"><path d="M 373.097656 450.757812 L 570 450.757812 L 570 574.1875 L 373.097656 574.1875 Z M 373.097656 450.757812 " clip-rule="nonzero"/></clipPath><clipPath id="84b41beaae"><path d="M 566.371094 533.023438 C 568.523438 526.695312 569.933594 519.5 569.933594 512.441406 C 569.933594 505.378906 568.722656 498.585938 566.570312 492.324219 C 566.503906 492.191406 566.503906 492.058594 566.4375 491.925781 C 557.828125 468.410156 535.101562 451.09375 507.539062 450.757812 L 373.097656 450.757812 L 373.097656 574.1875 L 507.441406 574.1875 C 535.234375 573.855469 557.964844 556.800781 566.371094 533.023438 Z M 566.371094 533.023438 " clip-rule="nonzero"/></clipPath><clipPath id="58f7a3eeba"><path d="M 0.0976562 0.757812 L 197 0.757812 L 197 124.1875 L 0.0976562 124.1875 Z M 0.0976562 0.757812 " clip-rule="nonzero"/></clipPath><clipPath id="cb756b243f"><path d="M 193.371094 83.023438 C 195.523438 76.695312 196.933594 69.5 196.933594 62.441406 C 196.933594 55.378906 195.722656 48.585938 193.570312 42.324219 C 193.503906 42.191406 193.503906 42.058594 193.4375 41.925781 C 184.828125 18.410156 162.101562 1.09375 134.539062 0.757812 L 0.0976562 0.757812 L 0.0976562 124.1875 L 134.441406 124.1875 C 162.234375 123.855469 184.964844 106.800781 193.371094 83.023438 Z M 193.371094 83.023438 " clip-rule="nonzero"/></clipPath><clipPath id="d49ebc82d3"><rect x="0" width="197" y="0" height="125"/></clipPath><clipPath id="bb76585042"><path d="M 373.089844 464.238281 L 560.75 464.238281 L 560.75 560.707031 L 373.089844 560.707031 Z M 373.089844 464.238281 " clip-rule="nonzero"/></clipPath><clipPath id="87a2784fc2"><path d="M 557.15625 528.535156 C 559.171875 523.589844 560.492188 517.964844 560.492188 512.449219 C 560.492188 506.929688 559.359375 501.617188 557.34375 496.726562 C 557.28125 496.621094 557.28125 496.515625 557.21875 496.414062 C 549.164062 478.035156 527.890625 464.5 502.027344 464.238281 L 373.089844 464.238281 L 373.089844 560.707031 L 501.929688 560.707031 C 528.015625 560.445312 549.289062 547.121094 557.15625 528.535156 Z M 557.15625 528.535156 " clip-rule="nonzero"/></clipPath><clipPath id="680936f5d6"><path d="M 0.0898438 0.238281 L 187.640625 0.238281 L 187.640625 96.707031 L 0.0898438 96.707031 Z M 0.0898438 0.238281 " clip-rule="nonzero"/></clipPath><clipPath id="5ffbc1efa3"><path d="M 184.15625 64.535156 C 186.171875 59.589844 187.492188 53.964844 187.492188 48.449219 C 187.492188 42.929688 186.359375 37.617188 184.34375 32.726562 C 184.28125 32.621094 184.28125 32.515625 184.21875 32.414062 C 176.164062 14.035156 154.890625 0.5 129.027344 0.238281 L 0.0898438 0.238281 L 0.0898438 96.707031 L 128.929688 96.707031 C 155.015625 96.445312 176.289062 83.121094 184.15625 64.535156 Z M 184.15625 64.535156 " clip-rule="nonzero"/></clipPath><clipPath id="cd8a8f65b5"><rect x="0" width="188" y="0" height="97"/></clipPath></defs><g clip-path="url(#feeae11c4c)"><g clip-path="url(#0dcd97571c)"><g transform="matrix(1, 0, 0, 1, 331, 135)"><g clip-path="url(#b8fd62bd73)"><g clip-path="url(#967d941760)"><g clip-path="url(#2be17083e0)"><path fill="#5170ff" d="M 0.800781 248.996094 L 0.800781 0.269531 L 418.582031 0.269531 L 418.582031 248.996094 Z M 0.800781 248.996094 " fill-opacity="1" fill-rule="nonzero"/></g></g></g></g></g></g><g clip-path="url(#d38205d09e)"><g clip-path="url(#d50f1d5dee)"><g transform="matrix(1, 0, 0, 1, 340, 413)"><g clip-path="url(#3c63fd7ac1)"><g clip-path="url(#1c6b6757b7)"><g clip-path="url(#4db22d8d10)"><path fill="#5170ff" d="M 0.90625 194.464844 L 0.90625 0.96875 L 310.804688 0.96875 L 310.804688 194.464844 Z M 0.90625 194.464844 " fill-opacity="1" fill-rule="nonzero"/></g></g></g></g></g></g><g clip-path="url(#dc79ba2d0f)"><g clip-path="url(#8030bdfc61)"><g transform="matrix(1, 0, 0, 1, 76, 76)"><g clip-path="url(#59cd744dd2)"><g clip-path="url(#126c281308)"><g clip-path="url(#d39ba7ab20)"><path fill="#5170ff" d="M 302.570312 691.996094 L 0.800781 691.996094 L 0.800781 1.222656 L 302.570312 1.222656 Z M 302.570312 691.996094 " fill-opacity="1" fill-rule="nonzero"/></g></g></g></g></g></g><g clip-path="url(#a9cb51d530)"><g clip-path="url(#40b5f826e4)"><g transform="matrix(1, 0, 0, 1, 88, 103)"><g clip-path="url(#062a8e1bf2)"><g clip-path="url(#f3fc7d5ddc)"><g clip-path="url(#85d3545b4b)"><path fill="#ffffff" d="M 273.679688 654.28125 L 0.113281 654.28125 L 0.113281 1.359375 L 273.679688 1.359375 Z M 273.679688 654.28125 " fill-opacity="1" fill-rule="nonzero"/></g></g></g></g></g></g><g clip-path="url(#31c10dec4f)"><g clip-path="url(#d1e8729b08)"><g transform="matrix(1, 0, 0, 1, 117, 135)"><g clip-path="url(#62e9af623b)"><g clip-path="url(#740841bcd2)"><g clip-path="url(#8c5578fc9e)"><path fill="#5170ff" d="M 214.800781 622.28125 L 0.992188 622.28125 L 0.992188 0.0625 L 214.800781 0.0625 Z M 214.800781 622.28125 " fill-opacity="1" fill-rule="nonzero"/></g></g></g></g></g></g><g clip-path="url(#a22d77cbd0)"><g clip-path="url(#3c775a7e86)"><g transform="matrix(1, 0, 0, 1, 121, 264)"><g clip-path="url(#b585ed6ba9)"><g clip-path="url(#3edee4fa29)"><g clip-path="url(#c892519875)"><path fill="#ffffff" d="M 207.011719 493.28125 L 0.785156 493.28125 L 0.785156 1.078125 L 207.011719 1.078125 Z M 207.011719 493.28125 " fill-opacity="1" fill-rule="nonzero"/></g></g></g></g></g></g><g clip-path="url(#55c6d2e92d)"><g clip-path="url(#13bb3c94a5)"><g transform="matrix(1, 0, 0, 1, 144, 288)"><g clip-path="url(#ab25c9d630)"><g clip-path="url(#381d5d935f)"><g clip-path="url(#9e895cf30f)"><path fill="#5170ff" d="M 161.488281 469.285156 L 0.308594 469.285156 L 0.308594 0.222656 L 161.488281 0.222656 Z M 161.488281 469.285156 " fill-opacity="1" fill-rule="nonzero"/></g></g></g></g></g></g><g clip-path="url(#007e48fd5a)"><g clip-path="url(#cd947e739f)"><g transform="matrix(1, 0, 0, 1, 373, 156)"><g clip-path="url(#7d122602a9)"><g clip-path="url(#f295f4f715)"><g clip-path="url(#966c111a69)"><path fill="#ffffff" d="M 0.09375 217.355469 L 0.09375 0.164062 L 346.242188 0.164062 L 346.242188 217.355469 Z M 0.09375 217.355469 " fill-opacity="1" fill-rule="nonzero"/></g></g></g></g></g></g><g clip-path="url(#cf59b77467)"><g clip-path="url(#6c11f8a208)"><g transform="matrix(1, 0, 0, 1, 373, 179)"><g clip-path="url(#80a4b837bb)"><g clip-path="url(#1b908b2f2f)"><g clip-path="url(#a2d4d7e39d)"><path fill="#5170ff" d="M 0.09375 170.636719 L 0.09375 0.886719 L 329.648438 0.886719 L 329.648438 170.636719 Z M 0.09375 170.636719 " fill-opacity="1" fill-rule="nonzero"/></g></g></g></g></g></g><g clip-path="url(#d6567f4e3f)"><g clip-path="url(#2282516e06)"><g transform="matrix(1, 0, 0, 1, 373, 182)"><g clip-path="url(#86a32dbbd8)"><g clip-path="url(#2293ce01d5)"><g clip-path="url(#c247e500c4)"><path fill="#ffffff" d="M 0.09375 164.625 L 0.09375 0.894531 L 261.039062 0.894531 L 261.039062 164.625 Z M 0.09375 164.625 " fill-opacity="1" fill-rule="nonzero"/></g></g></g></g></g></g><g clip-path="url(#588040dabf)"><g clip-path="url(#d2785f2efb)"><g transform="matrix(1, 0, 0, 1, 373, 200)"><g clip-path="url(#5d17e3cf56)"><g clip-path="url(#29bd170981)"><g clip-path="url(#a857932d73)"><path fill="#5170ff" d="M 0.0898438 128.746094 L 0.0898438 0.777344 L 248.523438 0.777344 L 248.523438 128.746094 Z M 0.0898438 128.746094 " fill-opacity="1" fill-rule="nonzero"/></g></g></g></g></g></g><g clip-path="url(#f8a2223e4a)"><g clip-path="url(#4dafe248f7)"><g transform="matrix(1, 0, 0, 1, 373, 430)"><g clip-path="url(#8c62495f4a)"><g clip-path="url(#9f01263ea1)"><g clip-path="url(#3e4799c479)"><path fill="#ffffff" d="M 0.09375 164.339844 L 0.09375 0.609375 L 261.039062 0.609375 L 261.039062 164.339844 Z M 0.09375 164.339844 " fill-opacity="1" fill-rule="nonzero"/></g></g></g></g></g></g><g clip-path="url(#9ea37a7a2f)"><g clip-path="url(#509468b5e7)"><g transform="matrix(1, 0, 0, 1, 373, 448)"><g clip-path="url(#a5eda32eed)"><g clip-path="url(#f75097cd23)"><g clip-path="url(#0560ff1620)"><path fill="#5170ff" d="M 0.0898438 128.460938 L 0.0898438 0.492188 L 248.523438 0.492188 L 248.523438 128.460938 Z M 0.0898438 128.460938 " fill-opacity="1" fill-rule="nonzero"/></g></g></g></g></g></g><g clip-path="url(#a7c3680c6a)"><g clip-path="url(#84b41beaae)"><g transform="matrix(1, 0, 0, 1, 373, 450)"><g clip-path="url(#d49ebc82d3)"><g clip-path="url(#58f7a3eeba)"><g clip-path="url(#cb756b243f)"><path fill="#ffffff" d="M 0.0976562 124.1875 L 0.0976562 0.757812 L 196.808594 0.757812 L 196.808594 124.1875 Z M 0.0976562 124.1875 " fill-opacity="1" fill-rule="nonzero"/></g></g></g></g></g></g><g clip-path="url(#bb76585042)"><g clip-path="url(#87a2784fc2)"><g transform="matrix(1, 0, 0, 1, 373, 464)"><g clip-path="url(#cd8a8f65b5)"><g clip-path="url(#680936f5d6)"><g clip-path="url(#5ffbc1efa3)"><path fill="#5170ff" d="M 0.0898438 96.707031 L 0.0898438 0.238281 L 187.375 0.238281 L 187.375 96.707031 Z M 0.0898438 96.707031 " fill-opacity="1" fill-rule="nonzero"/></g></g></g></g></g></g></svg>